<svg xmlns="http://www.w3.org/2000/svg" width="49" height="49" viewBox="0 0 49 49"><path d="M37.9 13.41a3.063 3.063 0 10-6.126 0 3.063 3.063 0 006.125 0zm7.751 25.158c-.143 0-.285.01-.424.028l-7.658-7.658a7.656 7.656 0 004.472-2.179l4.71-4.674a7.628 7.628 0 001.721-8.198c-1.022-2.603-2.896-6.358-6.021-9.468-3.114-3.1-6.83-4.92-9.398-5.902a7.694 7.694 0 00-8.16 1.729l-4.62 4.584c-2.229 2.218-2.871 5.63-1.599 8.491a35.91 35.91 0 001.282 2.594l-1.676 1.677-7.438-7.438V6.078A3.35 3.35 0 008.9 0C7.05 0 5.55 1.595 5.55 3.445c0 1.15.58 2.127 1.463 2.702v6.8c0 .507.201.994.56 1.353l7.999 7.999-3.706 3.705-5.195-5.196a3.35 3.35 0 10-2.573 2.84l5.061 5.063-8.6 8.6c-.359.359-.56.845-.56 1.353v8.422A1.916 1.916 0 001.914 49h8.422a1.914 1.914 0 001.914-1.914V43.64h3.445a1.914 1.914 0 001.915-1.914v-3.445h3.445a1.914 1.914 0 001.914-1.914v-2.42l4.977 5.11v3.914a3.35 3.35 0 103.828-.133v-4.56c0-.5-.195-.978-.543-1.336l-7.082-7.27a1.914 1.914 0 00-1.371-.579h-1.723a1.914 1.914 0 00-1.914 1.915v3.445h-3.446a1.914 1.914 0 00-1.914 1.914v3.445h-3.445a1.914 1.914 0 00-1.914 1.914v3.446H3.828v-5.715L23.7 19.585c.624-.624.74-1.593.283-2.347a30.978 30.978 0 01-1.81-3.472 3.81 3.81 0 01.798-4.22l4.62-4.585a3.861 3.861 0 014.096-.868c2.222.85 5.425 2.413 8.063 5.04 2.655 2.641 4.27 5.891 5.159 8.153a3.8 3.8 0 01-.856 4.083l-4.71 4.675a3.855 3.855 0 01-4.213.821 24.923 24.923 0 01-3.394-1.727 1.912 1.912 0 00-2.488 2.892l13.139 13.14a3.348 3.348 0 003.264 4.098 3.35 3.35 0 000-6.699z"/></svg>