<svg xmlns="http://www.w3.org/2000/svg" width="53" height="53" viewBox="0 0 53 53"><path d="M52.775 33.03a29.477 29.477 0 01-7.664 16.444l-2.69 2.87a2.065 2.065 0 01-2.927.095 2.07 2.07 0 01-.095-2.926l2.686-2.866a25.36 25.36 0 006.582-14.133 2.07 2.07 0 014.108.516zm-9.671 2.433l-4.494 5.042a2.065 2.065 0 01-1.547.693 2.07 2.07 0 01-1.545-3.448l4.506-5.055.026-.029c.3-.324.483-.726.534-1.156v-.504a2.052 2.052 0 00-.647-1.265 2.073 2.073 0 00-2.926.113l-7.603 8.277.228.244c3.346 3.615 3.127 9.267-.481 12.605l-1.587 1.469a2.066 2.066 0 01-2.926-.113 2.07 2.07 0 01.114-2.926l1.586-1.468a4.743 4.743 0 001.528-3.32 4.748 4.748 0 00-1.267-3.428L16.02 29.86a2.075 2.075 0 00-2.933-.12 2.06 2.06 0 00-.653 1.349v.35c.037.44.214.873.536 1.223l7.071 7.533a2.07 2.07 0 11-3.02 2.834l-7.076-7.54-.01-.01a6.178 6.178 0 01-1.63-3.728l-.003-.053a6.176 6.176 0 01-.01-.723l-.01-19.522.001-.062a1.927 1.927 0 00-.576-1.419 2.264 2.264 0 00-1.53-.66 1.904 1.904 0 00-1.417.526 2.04 2.04 0 00-.609 1.407L4.15 28.708v.046c-.152 6.724 2.217 13.078 6.672 17.893l2.685 2.866a2.07 2.07 0 11-3.022 2.832l-2.69-2.871-.008-.01C2.6 43.862-.162 36.483.008 28.685L.011 11.21l.001-.06c.049-1.655.718-3.183 1.883-4.3C3.073 5.719 4.636 5.124 6.3 5.173a6.357 6.357 0 014.35 1.884 6.029 6.029 0 011.774 4.422l.008 13.923a6.219 6.219 0 016.622 1.639l7.52 8.053 7.392-8.048a6.225 6.225 0 016.621-1.646l.007-13.921a6.106 6.106 0 011.69-4.393 6.178 6.178 0 014.322-1.913 6.21 6.21 0 014.43 1.651 6.092 6.092 0 011.961 4.385L53 22.459a2.07 2.07 0 01-4.14 0l-.003-11.214a1.98 1.98 0 00-.635-1.383 2.094 2.094 0 00-1.494-.55 2.063 2.063 0 00-1.445.631 1.996 1.996 0 00-.547 1.448v.062l-.01 19.421a6.192 6.192 0 01-1.621 4.59zM16.048 15.11V7.243a4.11 4.11 0 012.31-3.71l6.314-3.11a4.173 4.173 0 013.664 0l6.315 3.11a4.11 4.11 0 012.31 3.71v7.866a4.11 4.11 0 01-2.31 3.709l-6.314 3.111a4.149 4.149 0 01-1.833.425 4.14 4.14 0 01-1.832-.425l-6.315-3.111a4.11 4.11 0 01-2.309-3.709zm4.14 0l4.246 2.089v-5.801l-4.245-2.03zm12.633-.005L32.82 9.37l-4.245 2.026v5.797zm-10.087-9.11l3.77 1.803 3.777-1.803-3.774-1.857z"/></svg>