<svg xmlns="http://www.w3.org/2000/svg" width="50" height="50" viewBox="0 0 50 50"><path d="M21.582 42.968a1.953 1.953 0 01-1.953 1.954c-2.668 0-5.277-.629-7.754-1.868-2.31-1.155-4.4-2.785-6.211-4.844C2.064 34.12 0 28.774 0 23.545V9.844c0-.77.452-1.468 1.154-1.783L18.743.171a1.953 1.953 0 011.592-.003l17.763 7.89a1.953 1.953 0 011.16 1.786v6.073a1.953 1.953 0 11-3.907 0v-4.804L19.546 4.091l-15.64 7.017v12.437c0 9.143 7.494 17.47 15.723 17.47 1.079 0 1.953.875 1.953 1.954zM50 32.52a3.418 3.418 0 01-6.222 1.953h-21.93a3.418 3.418 0 110-3.906h21.93A3.418 3.418 0 0150 32.519zm-5.371-13.504v-8.497a3.418 3.418 0 113.906 0v9.306c0 .518-.205 1.014-.572 1.38l-3.906 3.907a1.954 1.954 0 01-1.381.572H30.734a3.418 3.418 0 110-3.906h11.133zm5.37 27.567a3.418 3.418 0 11-6.73-.844l-2.477-2.477h-9.335A3.416 3.416 0 0125 41.7a3.418 3.418 0 015.905-2.344h10.697c.518 0 1.014.206 1.38.572l3.255 3.254a3.418 3.418 0 013.763 3.4z"/></svg>