<svg xmlns="http://www.w3.org/2000/svg" width="25" height="25" viewBox="0 0 25 25"><path d="M24.72 4.357c.18.192.28.447.28.71V18.75c0 .575-.467 1.042-1.042 1.042h-8.333v4.166c0 .575-.467 1.042-1.042 1.042H1.042A1.042 1.042 0 010 23.958V6.25c0-.575.467-1.042 1.042-1.042h8.333V1.042C9.375.467 9.842 0 10.417 0h9.78c.29 0 .565.12.762.33zm-11.178 6.33L10.37 7.292H2.083v1.041h2.084a1.042 1.042 0 010 2.084H2.083v12.5h11.459zm9.375 7.021v-1.041h-2.084a1.042 1.042 0 010-2.084h2.084V5.48l-3.172-3.396h-8.287V5.43c.044.034.087.068.126.109l3.76 4.026c.181.193.28.447.28.711v7.432z"/></svg>