<svg xmlns="http://www.w3.org/2000/svg" width="22" height="23" viewBox="0 0 22 23"><path d="M21.712 8.376a.988.988 0 00-1.38.004L8.609 19.963a3.95 3.95 0 01-5.515-.002 3.787 3.787 0 010-5.421l12.07-11.924a2.47 2.47 0 013.446.002 2.367 2.367 0 010 3.388l-10 9.826-.002.002a.987.987 0 01-1.377-.001.946.946 0 010-1.355l4.827-4.744a.947.947 0 000-1.356.988.988 0 00-1.38 0l-4.826 4.744a2.84 2.84 0 000 4.066 2.962 2.962 0 004.138 0l.003-.004 9.996-9.822a4.26 4.26 0 000-6.1 4.445 4.445 0 00-6.206 0L1.712 13.186a5.68 5.68 0 00.001 8.13c2.286 2.245 5.992 2.245 8.276 0L21.716 9.732a.947.947 0 00-.004-1.356z"/></svg>