<svg xmlns="http://www.w3.org/2000/svg" width="18" height="14" viewBox="0 0 18 14"><path fill="#828282" d="M16.594 7.555V3.016l-6.109 3.869A2.77 2.77 0 019 7.32a2.77 2.77 0 01-1.485-.435L1.406 3.016v8.12c0 .79.631 1.432 1.406 1.432h12.375c.776 0 1.407-.643 1.407-1.433a.71.71 0 01.703-.716.71.71 0 01.703.716C18 12.715 16.738 14 15.187 14H2.813C1.262 14 0 12.715 0 11.135v-8.27C0 1.284 1.262 0 2.813 0h12.374C16.738 0 18 1.285 18 2.864v4.69a.71.71 0 01-.703.717.71.71 0 01-.703-.716zM16.007 1.7a1.382 1.382 0 00-.82-.269H2.812c-.305 0-.588.1-.82.27l6.265 3.966c.458.29 1.027.29 1.486 0z"/></svg>