<svg xmlns="http://www.w3.org/2000/svg" width="14" height="19" viewBox="0 0 14 19"><path fill="#828282" d="M11.268 7.607c0 .454-.06.903-.18 1.335-.107.392-.488.615-.85.497-.36-.118-.566-.531-.457-.924.08-.293.121-.598.121-.908C9.902 5.868 8.6 4.453 7 4.453S4.098 5.868 4.098 7.607c0 1.74 1.301 3.155 2.902 3.155.271 0 .539-.04.797-.12.362-.113.74.116.843.51.104.394-.107.805-.47.917a3.96 3.96 0 01-1.17.177c-2.354 0-4.268-2.08-4.268-4.639C2.732 5.05 4.646 2.97 7 2.97s4.268 2.08 4.268 4.638zM14 7.598c-.001 1.48-.38 2.869-1.156 4.244-.672 1.191-1.545 2.23-2.47 3.33-.906 1.08-1.843 2.195-2.592 3.482a.672.672 0 01-.577.346h-.41a.672.672 0 01-.577-.346c-.749-1.287-1.686-2.402-2.593-3.481-.924-1.1-1.797-2.14-2.47-3.33C.38 10.466.001 9.078 0 7.6c.002-2.032.73-3.94 2.053-5.375S5.132 0 7 0c1.868 0 3.625.79 4.947 2.225S13.997 5.568 14 7.598zm-1.366 0C12.631 4.229 10.103 1.485 7 1.485S1.37 4.228 1.366 7.6c.002 2.685 1.516 4.486 3.268 6.572.806.96 1.635 1.946 2.366 3.081.73-1.135 1.56-2.122 2.366-3.081 1.752-2.086 3.266-3.887 3.268-6.573z"/></svg>