<svg xmlns="http://www.w3.org/2000/svg" width="11" height="11" viewBox="0 0 11 11"><path d="M9.165 2.814c-.447 0-.808-.383-.808-.854s.361-.853.808-.853c.446 0 .808.382.808.853s-.362.854-.808.854zm-3.379-.88c1.86 0 3.372 1.597 3.372 3.56 0 1.965-1.512 3.563-3.372 3.563-1.859 0-3.372-1.598-3.372-3.562 0-1.964 1.513-3.561 3.372-3.561zm0 5.737c1.138 0 2.06-.974 2.06-2.176 0-1.201-.922-2.176-2.06-2.176s-2.06.975-2.06 2.176c0 1.202.922 2.176 2.06 2.176zm5.207.607V2.712c0-1.5-1.151-2.717-2.572-2.717H3.15C1.731-.005.58 1.211.58 2.712v5.566c0 1.5 1.152 2.717 2.572 2.717h5.27c1.42 0 2.572-1.216 2.572-2.717z"/></svg>