<svg xmlns="http://www.w3.org/2000/svg" width="19" height="19" viewBox="0 0 19 19"><g><g><path d="M10.353 11.764c0-.819.666-1.484 1.485-1.484h1.744c.818 0 1.484.666 1.484 1.485v1.744c0 .818-.667 1.484-1.485 1.484h-1.744a1.486 1.486 0 0 1-1.485-1.485zm1.484 1.744h1.744v-1.744h-1.744zm2.488-6.456a.742.742 0 1 1 0 1.484.742.742 0 0 1 0-1.484zm-3.229 0a.742.742 0 1 1 0 1.483.742.742 0 0 1 0-1.484zm6.419 5.27l.002-7.867c0-.819-.666-1.485-1.485-1.485h-.964v.742a.742.742 0 1 1-1.485 0v-.743h-3.377v.742a.742.742 0 0 1-1.484 0v-.743h-3.34v.742a.742.742 0 1 1-1.484 0v-.743H2.97c-.818 0-1.484.666-1.485 1.484L1.483 16.03c0 .819.665 1.485 1.484 1.485l13.062.003c.819 0 1.485-.666 1.485-1.484a.742.742 0 1 1 1.484 0 2.972 2.972 0 0 1-2.97 2.968l-13.062-.003A2.972 2.972 0 0 1-.002 16.03L.001 4.451a2.972 2.972 0 0 1 2.97-2.968h.927V.741a.742.742 0 1 1 1.485 0v.742l3.34.001V.742a.742.742 0 1 1 1.484 0v.742l3.377.001V.743a.742.742 0 1 1 1.484 0v.743h.965A2.972 2.972 0 0 1 19 4.456l-.002 7.866a.742.742 0 1 1-1.484 0zM4.638 13.507a.742.742 0 1 1 0 1.484.742.742 0 0 1 0-1.484zm.001-6.458a.742.742 0 1 1 0 1.485.742.742 0 0 1 0-1.485zm0 3.23a.742.742 0 1 1 0 1.483.742.742 0 0 1 0-1.484zm3.228 0a.742.742 0 1 1 0 1.484.742.742 0 0 1 0-1.484zm0-3.229a.742.742 0 1 1 0 1.485.742.742 0 0 1 0-1.485zm0 6.457a.742.742 0 1 1-.001 1.485.742.742 0 0 1 0-1.485z"/></g></g></svg>