<svg xmlns="http://www.w3.org/2000/svg" width="22" height="19" viewBox="0 0 22 19"><g><g><path fill="#727f8f" d="M19.637 0C20.94 0 22 1.04 22 2.32v11.141c0 1.28-1.06 2.321-2.363 2.321h-5.534a.217.217 0 0 0-.172.084l-2.076 2.713a1.071 1.071 0 0 1-.859.421h-.005a1.071 1.071 0 0 1-.86-.429l-2.03-2.703a.217.217 0 0 0-.173-.086H2.363C1.06 15.782 0 14.741 0 13.462V2.32C0 1.04 1.06 0 2.363 0zm1.074 2.618l-6.663 5.43 6.622 5.7c.026-.09.04-.187.04-.287zM2.363 1.266c-.195 0-.379.052-.537.142l8.49 6.919a1.09 1.09 0 0 0 1.372 0l8.488-6.918a1.081 1.081 0 0 0-.54-.143zm5.59 6.78L1.29 2.617V13.46c0 .1.014.196.04.288zm6.15 6.47h5.503l-6.562-5.65-.533.435a2.386 2.386 0 0 1-1.51.535A2.385 2.385 0 0 1 9.493 9.3l-.534-.436-6.564 5.651h5.534c.476 0 .928.225 1.21.6l1.86 2.476 1.903-2.486c.282-.37.732-.59 1.202-.59z"/></g></g></svg>