<svg xmlns="http://www.w3.org/2000/svg" width="13" height="12" viewBox="0 0 13 12"><g><g><path fill="#828282" d="M7.14 9.123c.015.351-.302.659-.652.659a.678.678 0 0 1-.666-.675c0-.367.304-.675.666-.675.366 0 .667.305.651.691zM10.654 12H2.311a2.279 2.279 0 0 1-1.993-1.158A2.345 2.345 0 0 1 .31 8.497l4.183-7.326A2.274 2.274 0 0 1 6.491 0C7.33 0 8.076.437 8.49 1.174l4.178 7.318c.416.728.413 1.6-.005 2.331A2.293 2.293 0 0 1 10.655 12zm1.108-2.977L7.583 1.7a1.241 1.241 0 0 0-1.092-.642c-.459 0-.864.237-1.091.64L1.217 9.02a1.29 1.29 0 0 0 .003 1.287 1.24 1.24 0 0 0 1.088.631h8.345c.459 0 .87-.24 1.102-.645.229-.402.232-.877.008-1.27zM7.094 4.077a.842.842 0 0 1 .061.338c-.016.337-.045.674-.06 1.011L7.002 6.99c-.016.17-.016.324-.016.491a.501.501 0 0 1-.499.491.491.491 0 0 1-.498-.475l-.136-2.42c-.017-.214-.03-.43-.046-.643 0-.353.198-.645.515-.736a.667.667 0 0 1 .771.38z"/></g></g></svg>