<svg xmlns="http://www.w3.org/2000/svg" width="18" height="22" viewBox="0 0 18 22"><path fill="#828282" d="M18 12.532c0 2.529-.936 4.906-2.636 6.695C13.664 21.015 11.404 22 9 22s-4.664-.985-6.364-2.773C.936 17.438 0 15.06 0 12.532c0-2.53.936-4.907 2.636-6.695C4.179 4.213 6.185 3.252 8.34 3.088L6.56.821 7.506 0l2.916 3.716-2.918 3.687-.942-.824 1.735-2.192c-3.959.375-7.071 3.884-7.071 8.145 0 4.51 3.487 8.179 7.774 8.179s7.774-3.67 7.774-8.18c0-2.345-.96-4.58-2.632-6.134l.811-.966C16.89 7.229 18 9.817 18 12.53zm-11.825 1.09h2.308v1.285H4.258c0-.28.02-.53.06-.75.04-.22.107-.42.203-.602.096-.181.226-.35.39-.504a3.57 3.57 0 01.62-.455c.265-.155.487-.283.666-.384.178-.101.32-.19.424-.268a1.04 1.04 0 00.225-.21.363.363 0 00.067-.218c0-.167-.056-.3-.17-.402-.112-.1-.274-.151-.483-.151-.237 0-.444.06-.62.183a2.624 2.624 0 00-.508.477l-.865-1.053a1.71 1.71 0 01.365-.312 2.99 2.99 0 01.517-.272 3.52 3.52 0 011.349-.263c.61 0 1.078.139 1.404.419.325.28.487.657.487 1.133a1.46 1.46 0 01-.322.941 1.867 1.867 0 01-.322.322c-.12.092-.24.177-.365.254-.085.054-.187.116-.305.187-.12.072-.237.145-.352.22a5.366 5.366 0 00-.323.222 1.44 1.44 0 00-.225.201zm7.262-.09v1.286h-.747v1.222h-1.357v-1.222H9v-1.276l2.765-3.73h.925v3.72zm-1.943-1.579l-1.154 1.58h1.154zm-.804-7.356l.349-1.236 1.247.389-.35 1.236zm1.855.689l.67-1.08 1.072.737-.67 1.08z"/></svg>