<svg xmlns="http://www.w3.org/2000/svg" width="17" height="17" viewBox="0 0 17 17"><path fill="#828282" d="M16.998 13.698a2.514 2.514 0 00-.77-1.728c-.928-.895-1.705-1.41-2.446-1.625-1.021-.295-1.967-.027-2.81.798l-.004.004-.898.89c-.561-.316-1.652-1.01-2.831-2.19l-.088-.086C5.972 8.58 5.278 7.49 4.961 6.93l.892-.898a.07.07 0 00.004-.004c.824-.844 1.092-1.79.797-2.81C6.44 2.478 5.924 1.7 5.03.773A2.514 2.514 0 003.302.002a2.513 2.513 0 00-1.78.644l-.018.017a.713.713 0 00-.026.025C.503 1.663-.008 3.028 0 4.634c.014 2.73 1.514 5.853 4.014 8.352.47.471 1.007.938 1.592 1.387a.664.664 0 10.808-1.055 14.844 14.844 0 01-1.461-1.271C2.695 9.789 1.34 7.016 1.328 4.628c-.006-1.238.366-2.27 1.077-2.989l.005-.004a1.194 1.194 0 011.664.06c1.719 1.782 1.595 2.624.835 3.403l-1.231 1.24a.664.664 0 00-.136.738c.032.07.788 1.741 2.67 3.624l.088.087c1.883 1.883 3.553 2.639 3.623 2.67.25.112.544.058.738-.135l1.24-1.231c.78-.76 1.621-.884 3.404.835.467.45.493 1.181.06 1.664l-.004.005c-.713.705-1.735 1.077-2.959 1.077h-.03c-.979-.005-2.112-.274-3.277-.776a.664.664 0 00-.526 1.22c1.347.58 2.624.878 3.796.884h.037c1.591 0 2.943-.51 3.91-1.478a.68.68 0 00.024-.026l.018-.019c.44-.49.668-1.122.644-1.78z"/></svg>