<svg xmlns="http://www.w3.org/2000/svg" width="11" height="10" viewBox="0 0 11 10"><path d="M11.143 1.64a4.63 4.63 0 01-1.32.376A2.353 2.353 0 0010.83.7a4.482 4.482 0 01-1.454.575A2.258 2.258 0 007.703.524c-1.269 0-2.29 1.069-2.29 2.38 0 .188.015.369.053.542C3.561 3.349 1.875 2.4.742.957A2.465 2.465 0 00.43 2.16c0 .824.408 1.554 1.018 1.977A2.199 2.199 0 01.41 3.844v.026c0 1.156.794 2.116 1.836 2.337-.186.054-.39.079-.6.079a1.95 1.95 0 01-.435-.04c.297.941 1.14 1.634 2.142 1.657a4.499 4.499 0 01-3.39.981A6.28 6.28 0 003.48 9.952c4.217 0 6.523-3.626 6.523-6.77a6.42 6.42 0 00-.009-.307 4.671 4.671 0 001.15-1.235z"/></svg>