<svg xmlns="http://www.w3.org/2000/svg" width="20" height="20" viewBox="0 0 20 20"><g><g><path d="M19.008 5.65A9.899 9.899 0 0 1 20 10c0 5.514-4.486 10-10 10S0 15.514 0 10 4.486 0 10 0c2.252 0 4.457.767 6.21 2.16a.833.833 0 1 1-1.037 1.304A8.233 8.233 0 0 0 10 1.667c-4.595 0-8.333 3.738-8.333 8.333 0 4.595 3.738 8.333 8.333 8.333 4.595 0 8.333-3.738 8.333-8.333a8.249 8.249 0 0 0-.825-3.625.833.833 0 0 1 1.5-.725zm-8.175-1.483v5h3.333a.834.834 0 0 1 0 1.666H10A.834.834 0 0 1 9.167 10V4.167a.834.834 0 0 1 1.666 0z"/></g></g></svg>