<svg xmlns="http://www.w3.org/2000/svg" width="22" height="22" viewBox="0 0 22 22"><g><g><path fill="#727f8f" d="M22 1.504v.86c0 .77-.584 1.407-1.332 1.493V16.07c0 .829-.675 1.504-1.504 1.504h-4.912l3.99 3.283a.644.644 0 1 1-.82.995l-5.198-4.278H9.61l-5.025 4.272a.645.645 0 0 1-.835-.982l3.87-3.29H2.836c-.83 0-1.504-.675-1.504-1.504V3.857A1.506 1.506 0 0 1 0 2.363v-.86C0 .676.675 0 1.504 0h18.992C21.326 0 22 .675 22 1.504zM19.379 16.07V3.867H2.62V16.07c0 .118.096.215.215.215h16.328a.215.215 0 0 0 .215-.215zM20.71 1.504a.215.215 0 0 0-.215-.215H1.504a.215.215 0 0 0-.215.215v.86c0 .118.096.214.215.214h18.992a.215.215 0 0 0 .215-.215zm-3.35 11.529a.645.645 0 0 1-.644.644H5.283a.645.645 0 0 1 0-1.289h1.205v-6.23c0-.356.289-.645.645-.645H9.71c.356 0 .644.289.644.645v6.23h1.29V8.165c0-.356.288-.645.644-.645h2.578c.356 0 .645.289.645.645v4.223h1.205c.356 0 .645.289.645.645zm-8.295-.645V6.803H7.777v5.585zm5.157 0V8.81h-1.29v3.58z"/></g></g></svg>