<svg xmlns="http://www.w3.org/2000/svg" width="22" height="22" viewBox="0 0 22 22"><g><g><path fill="#727f8f" d="M18.427 17.012a1.507 1.507 0 0 1 0 2.128l-1.034 1.034A6.196 6.196 0 0 1 12.983 22a6.196 6.196 0 0 1-4.409-1.826l-6.751-6.75a6.242 6.242 0 0 1 0-8.818l1.034-1.034a1.507 1.507 0 0 1 2.129 0l2.432 2.432c.285.285.441.663.441 1.065 0 .402-.156.78-.44 1.064L5.593 9.957a.215.215 0 0 0 0 .304l6.143 6.142c.084.084.22.084.304 0l1.825-1.824c.284-.284.662-.44 1.064-.44s.78.156 1.064.44zm-.912.912l-2.433-2.433a.215.215 0 0 0-.304 0l-1.825 1.825a1.507 1.507 0 0 1-2.129 0l-6.143-6.143a1.506 1.506 0 0 1 0-2.128l1.825-1.824a.215.215 0 0 0 0-.304L4.073 4.484a.214.214 0 0 0-.304 0L2.735 5.518a4.95 4.95 0 0 0 0 6.993l6.751 6.75a4.952 4.952 0 0 0 6.995 0l1.034-1.033a.215.215 0 0 0 0-.304zM22 1.505v6.837c0 .83-.675 1.505-1.505 1.505h-2.33l-2.82 2.418a1.067 1.067 0 0 1-1.148.16 1.064 1.064 0 0 1-.627-.976V9.847h-1.634c-.83 0-1.505-.675-1.505-1.505V1.505c0-.83.675-1.505 1.505-1.505h8.559C21.325 0 22 .675 22 1.505zm-1.29 0a.215.215 0 0 0-.215-.215h-8.559a.215.215 0 0 0-.215.215v6.837c0 .119.097.215.215.215h2.28c.356 0 .645.289.645.645v1.779l2.644-2.269a.645.645 0 0 1 .42-.155h2.57a.215.215 0 0 0 .215-.215zm-4.602 4.73a.645.645 0 0 1-.645.645h-1.807a.645.645 0 1 1 0-1.29h1.807c.356 0 .645.289.645.645zm3.311-2.58a.645.645 0 0 1-.645.645h-5.118a.645.645 0 1 1 0-1.29h5.118c.357 0 .645.289.645.645z"/></g></g></svg>